<svg width="1024" height="1024" viewBox="0 0 1024 1024" fill="none" xmlns="http://www.w3.org/2000/svg">
<g clip-path="url(#clip0_1067_214)">
<path fill-rule="evenodd" clip-rule="evenodd" d="M1024 512C1024 794.77 794.77 1024 512 1024C229.23 1024 0 794.77 0 512C0 229.23 229.23 0 512 0C794.77 0 1024 229.23 1024 512ZM704 176H776C806.928 176 832 201.072 832 232V792C832 822.928 806.928 848 776 848H704V176ZM337 248C303.863 248 277 274.863 277 308V343C277 356.807 288.193 368 302 368H562C575.807 368 587 356.807 587 343V273C587 259.193 575.807 248 562 248H337ZM507 619C507 605.193 518.193 594 532 594H562C575.807 594 587 605.193 587 619V750C587 763.807 575.807 775 562 775H532C518.193 775 507 763.807 507 750V619ZM407 695C398.716 695 392 701.716 392 710V760C392 768.284 398.716 775 407 775H457C465.284 775 472 768.284 472 760V710C472 701.716 465.284 695 457 695H407ZM392 609C392 600.716 398.716 594 407 594H457C465.284 594 472 600.716 472 609V659C472 667.284 465.284 674 457 674H407C398.716 674 392 667.284 392 659V609ZM292 695C283.716 695 277 701.716 277 710V760C277 768.284 283.716 775 292 775H342C350.284 775 357 768.284 357 760V710C357 701.716 350.284 695 342 695H292ZM277 609C277 600.716 283.716 594 292 594H342C350.284 594 357 600.716 357 609V659C357 667.284 350.284 674 342 674H292C283.716 674 277 667.284 277 659V609ZM522 493C513.716 493 507 499.716 507 508V558C507 566.284 513.716 573 522 573H572C580.284 573 587 566.284 587 558V508C587 499.716 580.284 493 572 493H522ZM392 508C392 499.716 398.716 493 407 493H457C465.284 493 472 499.716 472 508V558C472 566.284 465.284 573 457 573H407C398.716 573 392 566.284 392 558V508ZM292 493C283.716 493 277 499.716 277 508V558C277 566.284 283.716 573 292 573H342C350.284 573 357 566.284 357 558V508C357 499.716 350.284 493 342 493H292ZM507 407C507 398.716 513.716 392 522 392H572C580.284 392 587 398.716 587 407V457C587 465.284 580.284 472 572 472H522C513.716 472 507 465.284 507 457V407ZM407 391C398.716 391 392 397.716 392 406V456C392 464.284 398.716 471 407 471H457C465.284 471 472 464.284 472 456V406C472 397.716 465.284 391 457 391H407ZM277 407C277 398.716 283.716 392 292 392H342C350.284 392 357 398.716 357 407V457C357 465.284 350.284 472 342 472H292C283.716 472 277 465.284 277 457V407ZM192 236C192 202.863 218.863 176 252 176H652C663.046 176 672 184.954 672 196V828C672 839.046 663.046 848 652 848H242C214.386 848 192 825.614 192 798V236ZM236 243C236 229.193 247.193 218 261 218H604C617.807 218 629 229.193 629 243V781C629 794.807 617.807 806 604 806H261C247.193 806 236 794.807 236 781V243Z" fill="url(#paint0_linear_1067_214)"/>
</g>
<defs>
<linearGradient id="paint0_linear_1067_214" x1="512" y1="0" x2="512" y2="1024" gradientUnits="userSpaceOnUse">
<stop offset="0.185" stop-color="#94B9FF"/>
<stop offset="1" stop-color="#DD00FF"/>
</linearGradient>
<clipPath id="clip0_1067_214">
<rect width="1024" height="1024" fill="white"/>
</clipPath>
</defs>
</svg>
